# xmcd
#
# Track frame offsets:
#	150
#	19578
#	37341
#	56281
#	74411
#	88731
#	104944
#	118144
#	134127
#	150040
#	168845
#	184378
#	198321
#	210744
#	225864
#	240607
#	255560
#	270728
#	288281
#	300174
#
# Disc length: 4252 seconds
#
# Revision: 1
# Processed by: cddbd v1.5.2PL0 Copyright (c) Steve Scherf et al.
# Submitted via: audiograbber 1.83.01
#
DISCID=19109a14
DTITLE=Various Artist - Halland's Country Hits Volume 1
DYEAR=1900
DGENRE=
TTITLE0=Ronnie Milsap - Are You Lovin' Me Like I'm Lovin' You
TTITLE1=Ronnie Milsap - She Keeps The Home Fires Burning
TTITLE2=Ronnie Milsap - Since I Don't Have You
TTITLE3=John Michael Montgomery - I Love The Way You Love Me
TTITLE4=John Michael Montgomery - Life's A Dance
TTITLE5=Lorrie Morgan - A Picture Of Me (Without You)
TTITLE6=Lorrie Morgan - Except For Monday
TTITLE7=Lorrie Morgan - Five Minutes
TTITLE8=Lorrie Morgan - Half Enough
TTITLE9=Lorrie Morgan - I Guess You Had To Be There
TTITLE10=Lorrie Morgan - Watch Me
TTITLE11=Lorrie Morgan - We Both Walk
TTITLE12=Lorrie Morgan - What Part Of No
TTITLE13=Michael Martin Murphy - A Long Line Of Love
TTITLE14=Aaron Neville - The Grand Tour
TTITLE15=Nitty Gritty Dirt Band - Fishin' In The Dark
TTITLE16=Nitty Gritty Dirt Band - I've Been Lookin'
TTITLE17=Nitty Gritty Dirt Band - Stand A Little Rain
TTITLE18=Robert Ellis Orrall - Boom! It Was Over
TTITLE19=K.T. Oslin - I'll Always Come Back
EXTD=
EXTT0=
EXTT1=
EXTT2=
EXTT3=
EXTT4=
EXTT5=
EXTT6=
EXTT7=
EXTT8=
EXTT9=
EXTT10=
EXTT11=
EXTT12=
EXTT13=
EXTT14=
EXTT15=
EXTT16=
EXTT17=
EXTT18=
EXTT19=
PLAYORDER=
